<svg width="50" height="50" viewBox="0 0 200 200" fill="none" xmlns="http://www.w3.org/2000/svg">
<g clip-path="url(#clip0_23_313)">
<rect width="200" height="200" rx="50" fill="#E57A44"/>
<path d="M-33.4833 157.86C-33.4851 158.305 -33.4771 158.752 -33.4648 159.192C12.4667 134.971 63.4469 41.9722 171.427 -33.8509C73.0335 -9.72073 -33.311 101.157 -33.4833 157.859V157.86ZM-6.77965 224.631C53.6462 186.228 124.111 68.4208 226.298 -10.9471C127.13 13.3725 -8.29744 168.349 -6.77965 224.631ZM43.2469 266.831C96.9716 229.612 138.714 144.885 255.58 44.2436C156.41 68.5644 41.7291 210.551 43.2469 266.831Z" fill="#CE2E2E"/>
<path d="M84.7851 15.4218C69.3551 17.8551 57.4834 24.0364 48.9238 32.596C38.1446 43.3748 32.5103 58.0653 32.1143 74.3945H43.9648V104.824H34.7584C37.5341 120.179 42.4645 135.688 49.5093 148.898C61.0511 170.538 77.7807 185.723 100 185.723C122.219 185.723 138.949 170.538 150.491 148.898C157.535 135.688 162.466 120.179 165.242 104.824H156.035V74.3945H167.886C167.49 58.0657 161.855 43.3748 151.076 32.5957C142.516 24.0364 130.645 17.8551 115.215 15.4218V32.0899H84.7851V15.4218ZM75.8789 28.75C76.7647 28.75 77.6142 29.1019 78.2405 29.7282C78.8669 30.3546 79.2187 31.2041 79.2187 32.0899C79.2187 32.9756 78.8669 33.8251 78.2405 34.4515C77.6142 35.0778 76.7647 35.4297 75.8789 35.4297C74.9931 35.4297 74.1436 35.0778 73.5173 34.4515C72.8909 33.8251 72.539 32.9756 72.539 32.0899C72.539 31.2041 72.8909 30.3546 73.5173 29.7282C74.1436 29.1019 74.9931 28.75 75.8789 28.75ZM124.121 28.75C125.007 28.75 125.856 29.1019 126.483 29.7282C127.109 30.3546 127.461 31.2041 127.461 32.0899C127.461 32.9756 127.109 33.8251 126.483 34.4515C125.856 35.0778 125.007 35.4297 124.121 35.4297C123.235 35.4297 122.386 35.0778 121.759 34.4515C121.133 33.8251 120.781 32.9756 120.781 32.0899C120.781 31.2041 121.133 30.3546 121.759 29.7282C122.386 29.1019 123.235 28.75 124.121 28.75ZM74.3945 40.625C75.2803 40.625 76.1298 40.9769 76.7561 41.6032C77.3825 42.2296 77.7344 43.0791 77.7344 43.9649C77.7344 44.8506 77.3825 45.7001 76.7561 46.3265C76.1298 46.9528 75.2803 47.3047 74.3945 47.3047C73.5087 47.3047 72.6592 46.9528 72.0329 46.3265C71.4065 45.7001 71.0547 44.8506 71.0547 43.9649C71.0547 43.0791 71.4065 42.2296 72.0329 41.6032C72.6592 40.9769 73.5087 40.625 74.3945 40.625ZM125.605 40.625C126.491 40.625 127.341 40.9769 127.967 41.6032C128.593 42.2296 128.945 43.0791 128.945 43.9649C128.945 44.8506 128.593 45.7001 127.967 46.3265C127.341 46.9528 126.491 47.3047 125.605 47.3047C124.72 47.3047 123.87 46.9528 123.244 46.3265C122.617 45.7001 122.266 44.8506 122.266 43.9649C122.266 43.0791 122.617 42.2296 123.244 41.6032C123.87 40.9769 124.72 40.625 125.605 40.625ZM72.9101 55.0977C73.7959 55.0977 74.6454 55.4495 75.2718 56.0759C75.8981 56.7022 76.25 57.5517 76.25 58.4375C76.25 59.3233 75.8981 60.1728 75.2718 60.7991C74.6454 61.4255 73.7959 61.7774 72.9101 61.7774C72.0244 61.7774 71.1749 61.4255 70.5485 60.7991C69.9222 60.1728 69.5703 59.3233 69.5703 58.4375C69.5703 57.5517 69.9222 56.7022 70.5485 56.0759C71.1749 55.4495 72.0244 55.0977 72.9101 55.0977ZM90.7226 55.0977C91.6084 55.0977 92.4579 55.4495 93.0843 56.0759C93.7106 56.7022 94.0625 57.5517 94.0625 58.4375C94.0625 59.3233 93.7106 60.1728 93.0843 60.7991C92.4579 61.4255 91.6084 61.7774 90.7226 61.7774C89.8369 61.7774 88.9874 61.4255 88.361 60.7991C87.7347 60.1728 87.3828 59.3233 87.3828 58.4375C87.3828 57.5517 87.7347 56.7022 88.361 56.0759C88.9874 55.4495 89.8369 55.0977 90.7226 55.0977ZM109.277 55.0977C110.163 55.0977 111.013 55.4495 111.639 56.0759C112.265 56.7022 112.617 57.5517 112.617 58.4375C112.617 59.3233 112.265 60.1728 111.639 60.7991C111.013 61.4255 110.163 61.7774 109.277 61.7774C108.392 61.7774 107.542 61.4255 106.916 60.7991C106.289 60.1728 105.937 59.3233 105.937 58.4375C105.937 57.5517 106.289 56.7022 106.916 56.0759C107.542 55.4495 108.392 55.0977 109.277 55.0977ZM127.09 55.0977C127.976 55.0977 128.825 55.4495 129.451 56.0759C130.078 56.7022 130.43 57.5517 130.43 58.4375C130.43 59.3233 130.078 60.1728 129.451 60.7991C128.825 61.4255 127.976 61.7774 127.09 61.7774C126.204 61.7774 125.355 61.4255 124.728 60.7991C124.102 60.1728 123.75 59.3233 123.75 58.4375C123.75 57.5517 124.102 56.7022 124.728 56.0759C125.355 55.4495 126.204 55.0977 127.09 55.0977ZM76.25 65.8594H123.75L100 76.25L76.25 65.8594ZM70.3125 72.9102C79.9546 72.9102 88.4961 79.3104 88.4961 88.125C88.4961 96.9396 79.9546 103.34 70.3125 103.34C60.6704 103.34 52.1289 96.9396 52.1289 88.125C52.1289 79.3104 60.6704 72.9102 70.3125 72.9102ZM129.687 72.9102C139.33 72.9102 147.871 79.3104 147.871 88.125C147.871 96.9396 139.33 103.34 129.687 103.34C120.045 103.34 111.504 96.9396 111.504 88.125C111.504 79.3104 120.045 72.9102 129.687 72.9102ZM82.1875 117.813L64.375 135.625H56.9531L82.1875 117.813ZM88.125 117.813H111.875C111.875 117.813 105.598 129.688 100 129.688C94.402 129.688 88.125 117.813 88.125 117.813ZM117.812 117.813L143.047 135.625H135.625L117.812 117.813ZM88.125 141.563C89.0108 141.563 89.8603 141.914 90.4866 142.541C91.113 143.167 91.4648 144.017 91.4648 144.902C91.4648 145.788 91.113 146.638 90.4866 147.264C89.8603 147.89 89.0108 148.242 88.125 148.242C87.2392 148.242 86.3897 147.89 85.7634 147.264C85.137 146.638 84.7851 145.788 84.7851 144.902C84.7851 144.017 85.137 143.167 85.7634 142.541C86.3897 141.914 87.2392 141.563 88.125 141.563ZM111.875 141.563C112.761 141.563 113.61 141.914 114.237 142.541C114.863 143.167 115.215 144.017 115.215 144.902C115.215 145.788 114.863 146.638 114.237 147.264C113.61 147.89 112.761 148.242 111.875 148.242C110.989 148.242 110.14 147.89 109.513 147.264C108.887 146.638 108.535 145.788 108.535 144.902C108.535 144.017 108.887 143.167 109.513 142.541C110.14 141.914 110.989 141.563 111.875 141.563ZM76.25 147.5C77.1358 147.5 77.9853 147.852 78.6116 148.478C79.238 149.105 79.5898 149.954 79.5898 150.84C79.5898 151.726 79.238 152.575 78.6116 153.201C77.9853 153.828 77.1358 154.18 76.25 154.18C75.3642 154.18 74.5147 153.828 73.8884 153.201C73.262 152.575 72.9101 151.726 72.9101 150.84C72.9101 149.954 73.262 149.105 73.8884 148.478C74.5147 147.852 75.3642 147.5 76.25 147.5ZM123.75 147.5C124.636 147.5 125.485 147.852 126.112 148.478C126.738 149.105 127.09 149.954 127.09 150.84C127.09 151.726 126.738 152.575 126.112 153.201C125.485 153.828 124.636 154.18 123.75 154.18C122.864 154.18 122.015 153.828 121.388 153.201C120.762 152.575 120.41 151.726 120.41 150.84C120.41 149.954 120.762 149.105 121.388 148.478C122.015 147.852 122.864 147.5 123.75 147.5ZM88.125 153.438C89.0108 153.438 89.8603 153.789 90.4866 154.416C91.113 155.042 91.4648 155.892 91.4648 156.777C91.4648 157.663 91.113 158.513 90.4866 159.139C89.8603 159.765 89.0108 160.117 88.125 160.117C87.2392 160.117 86.3897 159.765 85.7634 159.139C85.137 158.513 84.7851 157.663 84.7851 156.777C84.7851 155.892 85.137 155.042 85.7634 154.416C86.3897 153.789 87.2392 153.438 88.125 153.438ZM111.875 153.438C112.761 153.438 113.61 153.789 114.237 154.416C114.863 155.042 115.215 155.892 115.215 156.777C115.215 157.663 114.863 158.513 114.237 159.139C113.61 159.765 112.761 160.117 111.875 160.117C110.989 160.117 110.14 159.765 109.513 159.139C108.887 158.513 108.535 157.663 108.535 156.777C108.535 155.892 108.887 155.042 109.513 154.416C110.14 153.789 110.989 153.438 111.875 153.438ZM67.7148 156.035C68.6006 156.035 69.4501 156.387 70.0765 157.013C70.7028 157.64 71.0547 158.489 71.0547 159.375C71.0547 160.261 70.7028 161.11 70.0765 161.737C69.4501 162.363 68.6006 162.715 67.7148 162.715C66.829 162.715 65.9795 162.363 65.3532 161.737C64.7269 161.11 64.375 160.261 64.375 159.375C64.375 158.489 64.7269 157.64 65.3532 157.013C65.9795 156.387 66.829 156.035 67.7148 156.035ZM132.285 156.035C133.171 156.035 134.02 156.387 134.647 157.013C135.273 157.64 135.625 158.489 135.625 159.375C135.625 160.261 135.273 161.11 134.647 161.737C134.02 162.363 133.171 162.715 132.285 162.715C131.399 162.715 130.55 162.363 129.924 161.737C129.297 161.11 128.945 160.261 128.945 159.375C128.945 158.489 129.297 157.64 129.924 157.013C130.55 156.387 131.399 156.035 132.285 156.035ZM88.125 165.313C89.0108 165.313 89.8603 165.664 90.4866 166.291C91.113 166.917 91.4648 167.767 91.4648 168.652C91.4648 169.538 91.113 170.388 90.4866 171.014C89.8603 171.64 89.0108 171.992 88.125 171.992C87.2392 171.992 86.3897 171.64 85.7634 171.014C85.137 170.388 84.7851 169.538 84.7851 168.652C84.7851 167.767 85.137 166.917 85.7634 166.291C86.3897 165.664 87.2392 165.313 88.125 165.313ZM111.875 165.313C112.761 165.313 113.61 165.664 114.237 166.291C114.863 166.917 115.215 167.767 115.215 168.652C115.215 169.538 114.863 170.388 114.237 171.014C113.61 171.64 112.761 171.992 111.875 171.992C110.989 171.992 110.14 171.64 109.513 171.014C108.887 170.388 108.535 169.538 108.535 168.652C108.535 167.767 108.887 166.917 109.513 166.291C110.14 165.664 110.989 165.313 111.875 165.313Z" fill="#DBC6BB"/>
<path d="M39.793 115.055L34.7539 124.312C34.7539 126.969 33.9727 129.078 32.4102 130.641C31.7852 131.266 30.9648 131.617 29.9492 131.695C29.6367 132.242 29.3242 132.984 29.0117 133.922C28.6992 134.859 28.3477 135.875 27.957 136.969C27.0195 139.547 25.8867 141.578 24.5586 143.062C21.7461 146.188 19.5977 146.734 18.1133 144.703C17.6445 144.078 17.2539 143.258 16.9414 142.242C16.3945 140.445 15.8477 139.43 15.3008 139.195C14.6758 138.805 14.4414 137.945 14.5977 136.617C14.832 135.211 15.3789 133.805 16.2383 132.398C17.0977 130.914 17.8008 129.195 18.3477 127.242C18.8945 125.289 19.4414 123.922 19.9883 123.141C20.6133 122.281 21.0039 121.617 21.1602 121.148C21.3164 120.602 21.4336 120.055 21.5117 119.508C21.8242 118.18 22.3711 116.93 23.1523 115.758C24.0117 114.508 24.6367 112.945 25.0273 111.07C25.8867 107.242 26.668 104.664 27.3711 103.336C28.6211 100.914 29.5195 99.2734 30.0664 98.4141C29.4414 97.4766 28.8945 96.6953 28.4258 96.0703C27.957 95.3672 27.5273 94.7031 27.1367 94.0781C26.5898 93.0625 26.1211 91.7734 25.7305 90.2109C25.418 88.6484 25.0273 87.3984 24.5586 86.4609C24.0898 85.5234 23.543 84.625 22.918 83.7656C20.8086 80.4844 18.8164 76.3438 16.9414 71.3438C16.3945 69.8594 15.418 68.5312 14.0117 67.3594C10.418 64.3906 9.44141 61.7344 11.082 59.3906C11.9414 58.0625 12.9961 57.3984 14.2461 57.3984C15.4961 57.3984 16.668 57.6328 17.7617 58.1016C18.8555 58.4922 19.5586 58.6875 19.8711 58.6875C20.2617 58.6094 20.6133 58.5312 20.9258 58.4531C21.7852 58.0625 22.8008 57.9844 23.9727 58.2188C25.1445 58.375 26.082 58.375 26.7852 58.2188C27.5664 58.0625 28.2695 57.8672 28.8945 57.6328C30.457 57.0078 31.8242 56.9688 32.9961 57.5156C34.168 58.0625 34.793 58.9219 34.8711 60.0938C34.9492 61.2656 34.9492 62.75 34.8711 64.5469C34.8711 66.2656 34.9883 67.5156 35.2227 68.2969C35.5352 69.0781 35.9258 69.8594 36.3945 70.6406C37.8789 73.2969 38.7773 75.25 39.0898 76.5C39.4805 77.6719 39.832 78.4922 40.1445 78.9609C41.4727 76.4609 42.6836 74.2344 43.7773 72.2812C44.9492 70.25 45.6523 68.6484 45.8867 67.4766C46.1211 66.3047 46.2773 65.2109 46.3555 64.1953C46.4336 63.1797 46.5508 62.2031 46.707 61.2656C47.0195 59.1562 47.8789 57.7109 49.2852 56.9297C52.0195 55.2891 55.1445 55.7578 58.6602 58.3359C59.9102 58.1797 61.1992 58.1016 62.5273 58.1016C63.9336 58.1016 65.1836 58.2188 66.2773 58.4531C68.8555 59 70.2227 60.1328 70.3789 61.8516C70.6133 63.1797 70.3398 64.2734 69.5586 65.1328C68.8555 65.9922 68.3086 66.6953 67.918 67.2422C67.6055 67.7109 67.4492 68.5312 67.4492 69.7031C67.4492 72.0469 66.2773 73.7656 63.9336 74.8594C62.6836 75.4844 61.9805 76.0703 61.8242 76.6172C61.7461 77.1641 61.7852 77.5156 61.9414 77.6719C62.4102 78.1406 61.9805 79.0391 60.6523 80.3672C59.3242 81.6953 58.2695 82.9062 57.4883 84C56.7852 85.0938 56.1211 86.1875 55.4961 87.2812C53.9336 89.8594 52.8008 91.4609 52.0977 92.0859C51.0039 92.8672 50.3789 94 50.2227 95.4844C50.1445 96.9688 50.6133 98.5312 51.6289 100.172C52.4883 101.969 53.2695 103.727 53.9727 105.445C54.6758 107.086 54.832 108.258 54.4414 108.961C54.1289 109.586 54.0508 110.094 54.207 110.484C54.3633 110.797 54.6367 111.188 55.0273 111.656C56.4336 113.297 57.5273 115.211 58.3086 117.398C58.8555 118.883 59.4805 120.25 60.1836 121.5C60.8867 122.75 61.5508 124 62.1758 125.25C64.5195 130.016 66.082 135.25 66.8633 140.953C67.0977 142.75 66.3555 144.039 64.6367 144.82C63.3867 145.523 61.9414 145.602 60.3008 145.055C58.7383 144.508 57.6445 143.414 57.0195 141.773C56.3945 140.055 55.6914 138.883 54.9102 138.258C54.207 137.555 53.4648 136.93 52.6836 136.383C51.9805 135.836 51.2773 135.211 50.5742 134.508C49.8711 133.805 49.3242 132.867 48.9336 131.695C48.6211 130.523 48.1914 129.234 47.6445 127.828C47.0977 126.422 46.4336 124.938 45.6523 123.375C43.8555 119.938 41.9023 117.164 39.793 115.055ZM99.4414 79.1953C96.7852 79.8984 96.2773 84.4297 97.918 92.7891C98.4648 95.0547 98.7383 96.9688 98.7383 98.5312C98.8164 100.016 98.6211 101.656 98.1523 103.453C97.6836 105.25 97.4492 106.695 97.4492 107.789C97.4492 108.883 97.293 110.172 96.9805 111.656C97.0586 113.297 97.0195 114.977 96.8633 116.695C96.7852 118.336 96.707 119.938 96.6289 121.5C96.3945 125.328 96.3555 127.594 96.5117 128.297C96.668 129 96.9023 129.469 97.2148 129.703C97.6055 129.859 98.0352 130.016 98.5039 130.172C99.5977 130.562 100.262 131.07 100.496 131.695C100.73 132.32 100.809 133.219 100.73 134.391C100.73 135.484 100.613 136.656 100.379 137.906C99.6758 140.875 98.6992 142.789 97.4492 143.648C96.7461 144.117 96.0039 144.273 95.2227 144.117C94.5195 143.961 93.7383 143.805 92.8789 143.648C90.2227 143.18 87.957 143.414 86.082 144.352C81.4727 146.852 77.918 146.852 75.418 144.352C74.4023 143.336 73.7773 141.773 73.543 139.664C73.2305 135.836 73.4258 133.375 74.1289 132.281C74.9102 131.188 75.5352 130.523 76.0039 130.289C76.5508 129.977 77.0195 129.703 77.4102 129.469C78.2695 129.078 78.6992 128.414 78.6992 127.477C78.6992 126.773 78.7773 126.031 78.9336 125.25C79.168 124.391 79.3633 123.492 79.5195 122.555C79.9102 120.289 79.7148 118.414 78.9336 116.93C78.0742 115.211 77.6836 113.805 77.7617 112.711C77.918 111.617 78.0352 110.641 78.1133 109.781L78.582 106.969C78.7383 104.703 78.6992 102.789 78.4648 101.227C78.2305 99.5859 78.0352 97.9062 77.8789 96.1875C77.8008 94.3906 77.7617 92.7109 77.7617 91.1484C77.8398 89.5859 77.8789 88.1016 77.8789 86.6953C77.8789 83.4141 77.5273 81.4609 76.8242 80.8359C76.1992 80.2109 75.6133 79.8984 75.0664 79.8984C74.5195 79.8203 73.9727 79.7812 73.4258 79.7812C71.9414 79.9375 71.0039 79.7031 70.6133 79.0781C69.7539 78.2188 69.3242 77.125 69.3242 75.7969C69.3242 74.4688 69.5586 73.4531 70.0273 72.75C70.5742 72.0469 70.9258 71.2656 71.082 70.4062C71.2383 69.4688 71.3164 68.4922 71.3164 67.4766C71.4727 65.1328 71.3945 63.6094 71.082 62.9062C70.7695 62.125 70.5352 61.4609 70.3789 60.9141C70.3008 60.2891 70.2617 59.7031 70.2617 59.1562C70.2617 56.8906 71.8633 55.7188 75.0664 55.6406C77.0195 55.5625 79.0117 55.6016 81.043 55.7578C83.0742 55.8359 84.6758 55.7578 85.8477 55.5234C89.9102 54.7422 93.1523 54.4297 95.5742 54.5859C98.0742 54.7422 99.6758 54.9375 100.379 55.1719C102.332 55.9531 103.387 58.1016 103.543 61.6172C103.621 63.2578 103.66 64.9766 103.66 66.7734C103.66 68.5703 103.738 70.4062 103.895 72.2812C104.207 76.1875 102.723 78.4922 99.4414 79.1953ZM138.816 79.1953C136.16 79.8984 135.652 84.4297 137.293 92.7891C137.84 95.0547 138.113 96.9688 138.113 98.5312C138.191 100.016 137.996 101.656 137.527 103.453C137.059 105.25 136.824 106.695 136.824 107.789C136.824 108.883 136.668 110.172 136.355 111.656C136.434 113.297 136.395 114.977 136.238 116.695C136.16 118.336 136.082 119.938 136.004 121.5C135.77 125.328 135.73 127.594 135.887 128.297C136.043 129 136.277 129.469 136.59 129.703C136.98 129.859 137.41 130.016 137.879 130.172C138.973 130.562 139.637 131.07 139.871 131.695C140.105 132.32 140.184 133.219 140.105 134.391C140.105 135.484 139.988 136.656 139.754 137.906C139.051 140.875 138.074 142.789 136.824 143.648C136.121 144.117 135.379 144.273 134.598 144.117C133.895 143.961 133.113 143.805 132.254 143.648C129.598 143.18 127.332 143.414 125.457 144.352C120.848 146.852 117.293 146.852 114.793 144.352C113.777 143.336 113.152 141.773 112.918 139.664C112.605 135.836 112.801 133.375 113.504 132.281C114.285 131.188 114.91 130.523 115.379 130.289C115.926 129.977 116.395 129.703 116.785 129.469C117.645 129.078 118.074 128.414 118.074 127.477C118.074 126.773 118.152 126.031 118.309 125.25C118.543 124.391 118.738 123.492 118.895 122.555C119.285 120.289 119.09 118.414 118.309 116.93C117.449 115.211 117.059 113.805 117.137 112.711C117.293 111.617 117.41 110.641 117.488 109.781L117.957 106.969C118.113 104.703 118.074 102.789 117.84 101.227C117.605 99.5859 117.41 97.9062 117.254 96.1875C117.176 94.3906 117.137 92.7109 117.137 91.1484C117.215 89.5859 117.254 88.1016 117.254 86.6953C117.254 83.4141 116.902 81.4609 116.199 80.8359C115.574 80.2109 114.988 79.8984 114.441 79.8984C113.895 79.8203 113.348 79.7812 112.801 79.7812C111.316 79.9375 110.379 79.7031 109.988 79.0781C109.129 78.2188 108.699 77.125 108.699 75.7969C108.699 74.4688 108.934 73.4531 109.402 72.75C109.949 72.0469 110.301 71.2656 110.457 70.4062C110.613 69.4688 110.691 68.4922 110.691 67.4766C110.848 65.1328 110.77 63.6094 110.457 62.9062C110.145 62.125 109.91 61.4609 109.754 60.9141C109.676 60.2891 109.637 59.7031 109.637 59.1562C109.637 56.8906 111.238 55.7188 114.441 55.6406C116.395 55.5625 118.387 55.6016 120.418 55.7578C122.449 55.8359 124.051 55.7578 125.223 55.5234C129.285 54.7422 132.527 54.4297 134.949 54.5859C137.449 54.7422 139.051 54.9375 139.754 55.1719C141.707 55.9531 142.762 58.1016 142.918 61.6172C142.996 63.2578 143.035 64.9766 143.035 66.7734C143.035 68.5703 143.113 70.4062 143.27 72.2812C143.582 76.1875 142.098 78.4922 138.816 79.1953ZM178.191 79.1953C175.535 79.8984 175.027 84.4297 176.668 92.7891C177.215 95.0547 177.488 96.9688 177.488 98.5312C177.566 100.016 177.371 101.656 176.902 103.453C176.434 105.25 176.199 106.695 176.199 107.789C176.199 108.883 176.043 110.172 175.73 111.656C175.809 113.297 175.77 114.977 175.613 116.695C175.535 118.336 175.457 119.938 175.379 121.5C175.145 125.328 175.105 127.594 175.262 128.297C175.418 129 175.652 129.469 175.965 129.703C176.355 129.859 176.785 130.016 177.254 130.172C178.348 130.562 179.012 131.07 179.246 131.695C179.48 132.32 179.559 133.219 179.48 134.391C179.48 135.484 179.363 136.656 179.129 137.906C178.426 140.875 177.449 142.789 176.199 143.648C175.496 144.117 174.754 144.273 173.973 144.117C173.27 143.961 172.488 143.805 171.629 143.648C168.973 143.18 166.707 143.414 164.832 144.352C160.223 146.852 156.668 146.852 154.168 144.352C153.152 143.336 152.527 141.773 152.293 139.664C151.98 135.836 152.176 133.375 152.879 132.281C153.66 131.188 154.285 130.523 154.754 130.289C155.301 129.977 155.77 129.703 156.16 129.469C157.02 129.078 157.449 128.414 157.449 127.477C157.449 126.773 157.527 126.031 157.684 125.25C157.918 124.391 158.113 123.492 158.27 122.555C158.66 120.289 158.465 118.414 157.684 116.93C156.824 115.211 156.434 113.805 156.512 112.711C156.668 111.617 156.785 110.641 156.863 109.781L157.332 106.969C157.488 104.703 157.449 102.789 157.215 101.227C156.98 99.5859 156.785 97.9062 156.629 96.1875C156.551 94.3906 156.512 92.7109 156.512 91.1484C156.59 89.5859 156.629 88.1016 156.629 86.6953C156.629 83.4141 156.277 81.4609 155.574 80.8359C154.949 80.2109 154.363 79.8984 153.816 79.8984C153.27 79.8203 152.723 79.7812 152.176 79.7812C150.691 79.9375 149.754 79.7031 149.363 79.0781C148.504 78.2188 148.074 77.125 148.074 75.7969C148.074 74.4688 148.309 73.4531 148.777 72.75C149.324 72.0469 149.676 71.2656 149.832 70.4062C149.988 69.4688 150.066 68.4922 150.066 67.4766C150.223 65.1328 150.145 63.6094 149.832 62.9062C149.52 62.125 149.285 61.4609 149.129 60.9141C149.051 60.2891 149.012 59.7031 149.012 59.1562C149.012 56.8906 150.613 55.7188 153.816 55.6406C155.77 55.5625 157.762 55.6016 159.793 55.7578C161.824 55.8359 163.426 55.7578 164.598 55.5234C168.66 54.7422 171.902 54.4297 174.324 54.5859C176.824 54.7422 178.426 54.9375 179.129 55.1719C181.082 55.9531 182.137 58.1016 182.293 61.6172C182.371 63.2578 182.41 64.9766 182.41 66.7734C182.41 68.5703 182.488 70.4062 182.645 72.2812C182.957 76.1875 181.473 78.4922 178.191 79.1953Z" fill="#422040"/>
</g>
<defs>
<clipPath id="clip0_23_313">
<rect width="200" height="200" rx="50" fill="white"/>
</clipPath>
</defs>
</svg>
